<?xml version="1.0" standalone="no"?>
<!DOCTYPE svg PUBLIC "-//W3C//DTD SVG 20010904//EN"
 "http://www.w3.org/TR/2001/REC-SVG-20010904/DTD/svg10.dtd">
<svg version="1.0" xmlns="http://www.w3.org/2000/svg"
 width="185.000000pt" height="185.000000pt" viewBox="0 0 185.000000 185.000000"
 preserveAspectRatio="xMidYMid meet">
<metadata>
Created by potrace 1.14, written by Peter Selinger 2001-2017
</metadata>
<g transform="translate(0.000000,185.000000) scale(0.100000,-0.100000)"
fill="#000000" stroke="none">
<path d="M448 1336 c-61 -17 -123 -60 -158 -112 -27 -38 -33 -42 -86 -47 -83
-9 -164 -52 -188 -101 l-19 -38 27 -78 c32 -95 32 -98 1 -156 -14 -26 -25 -59
-25 -74 0 -35 98 -172 136 -189 53 -24 182 -31 639 -37 531 -7 894 5 968 31
65 23 84 53 69 108 -10 38 -9 45 14 78 30 43 30 51 2 101 l-22 39 22 62 c12
34 22 71 22 82 0 74 -147 138 -390 170 -71 10 -116 20 -119 28 -2 6 -27 35
-55 63 -81 79 -173 102 -283 69 -55 -16 -134 -79 -159 -126 -21 -41 -46 -36
-85 15 -43 56 -111 102 -169 115 -57 13 -84 13 -142 -3z"/>
</g>
</svg>
