<?xml version="1.0" encoding="UTF-8"?><svg id="Ebene_1" xmlns="http://www.w3.org/2000/svg" viewBox="0 0 210 297"><defs><style>.cls-1{fill:#1d1d1b;}.cls-2{stroke-width:4px;}.cls-2,.cls-3{fill:#fff;stroke:#1d1d1b;}.cls-2,.cls-3,.cls-4{stroke-miterlimit:10;}.cls-3{stroke-width:3px;}.cls-4{fill:none;stroke:#000;stroke-width:7px;}</style></defs><path class="cls-2" d="M18.21,223.12c-1.22-8.13-3.78-16.08-4.03-24.29-.28-9.32,2.44-18.45,3.41-27.72,2.51-24.09-6.78-48.58-2.38-72.39,5.92-31.98,39.2-55.92,71.16-51.77,5.63,.73,11.15,2.21,16.79,2.93,6.85,.88,13.79,.65,20.69,.41,9.32-.32,18.63-.63,27.95-.95,7.41-.25,15.17-.43,21.8,2.91,8.42,4.25,13.35,13.41,15.89,22.55,8.11,29.13-2.86,60.05-1.55,90.27,.78,17.89,5.88,35.55,4.8,53.43-.44,7.27-1.9,14.43-3.36,21.56-1.77,8.66-3.54,17.32-5.31,25.98-1.18,5.77-2.62,12-7.09,15.78-3.07,2.59-7.11,3.62-11.02,4.47-40.24,8.68-81.94,5.58-122.96,2.44-4.36-.33-8.95-.74-12.57-3.23-22.97-15.75-8.99-40.95-12.22-62.39Z"/><circle class="cls-3" cx="93.45" cy="57.77" r="27"/><circle class="cls-1" cx="97.39" cy="72.52" r="12.75"/><circle class="cls-3" cx="149.98" cy="57.52" r="27"/><circle class="cls-1" cx="153.92" cy="72.27" r="12.75"/><circle class="cls-4" cx="110.14" cy="178.39" r="43.12"/><line class="cls-4" x1="110.14" y1="219.83" x2="110.14" y2="281"/><line class="cls-4" x1="79.21" y1="246.32" x2="141.17" y2="246.32"/></svg>