<?xml version="1.0" encoding="UTF-8"?><svg id="Ebene_1" xmlns="http://www.w3.org/2000/svg" viewBox="0 0 210 297"><defs><style>.cls-1{fill:#1d1d1b;}.cls-2{stroke-width:4px;}.cls-2,.cls-3{fill:#fff;stroke:#1d1d1b;}.cls-2,.cls-3,.cls-4{stroke-miterlimit:10;}.cls-3{stroke-width:3px;}.cls-4{fill:none;stroke:#000;stroke-width:7px;}</style></defs><path class="cls-2" d="M190.06,224.12c1.24-8.13,3.82-16.08,4.06-24.29,.28-9.32-2.46-18.45-3.44-27.72-2.54-24.09,6.85-48.58,2.4-72.39-5.98-31.98-39.57-55.92-71.84-51.77-5.69,.73-11.26,2.21-16.95,2.93-6.92,.88-13.92,.65-20.89,.41-9.41-.32-18.81-.63-28.22-.95-7.48-.25-15.31-.43-22.01,2.91-8.5,4.25-13.47,13.41-16.05,22.55-8.19,29.13,2.89,60.05,1.56,90.27-.79,17.89-5.94,35.55-4.84,53.43,.45,7.27,1.92,14.43,3.4,21.56,1.79,8.66,3.57,17.32,5.36,25.98,1.19,5.77,2.64,12,7.16,15.78,3.1,2.59,7.18,3.62,11.13,4.47,40.62,8.68,82.72,5.58,124.14,2.44,4.41-.33,9.04-.74,12.69-3.23,23.19-15.75,9.08-40.95,12.34-62.39Z"/><circle class="cls-3" cx="53.45" cy="57.77" r="27"/><circle class="cls-1" cx="52.39" cy="72.52" r="12.75"/><circle class="cls-3" cx="109.98" cy="57.52" r="27"/><circle class="cls-1" cx="108.92" cy="72.27" r="12.75"/><circle class="cls-4" cx="93.86" cy="234.79" r="43.12"/><line class="cls-4" x1="122.81" y1="202.83" x2="164.82" y2="160.81"/><line class="cls-4" x1="116.47" y1="157.42" x2="170.84" y2="157.42"/><line class="cls-4" x1="167.51" y1="154.34" x2="167.51" y2="208.71"/></svg>